<?xml version="1.0" standalone="no"?>
<!DOCTYPE svg PUBLIC "-//W3C//DTD SVG 20010904//EN"
 "http://www.w3.org/TR/2001/REC-SVG-20010904/DTD/svg10.dtd">
<svg version="1.0" xmlns="http://www.w3.org/2000/svg"
 width="980.000000pt" height="980.000000pt" viewBox="0 0 980.000000 980.000000"
 preserveAspectRatio="xMidYMid meet">
<metadata>
Created by potrace 1.14, written by Peter Selinger 2001-2017
</metadata>
<g transform="translate(0.000000,980.000000) scale(0.100000,-0.100000)"
fill="#000000" stroke="none">
<path d="M2605 7969 c-66 -4 -134 -11 -150 -17 -101 -32 -198 -99 -950 -660
-1234 -921 -1401 -1057 -1473 -1202 -60 -119 -43 -196 109 -495 172 -340 914
-1694 1222 -2230 93 -163 141 -214 256 -274 l80 -41 713 5 c851 8 1140 17
1218 41 138 41 312 147 663 404 108 80 252 185 320 234 l122 88 6 -318 c10
-463 18 -542 65 -635 32 -64 68 -104 133 -148 225 -152 1467 -819 1626 -872
64 -22 85 -24 255 -23 225 1 553 40 1650 195 833 117 1049 155 1115 194 56 32
157 141 186 201 l24 49 3 1488 3 1488 -51 97 c-61 118 -111 185 -173 232 -186
141 -1551 863 -1683 890 -101 21 -131 18 -1659 -195 -379 -53 -698 -94 -710
-91 -35 9 -76 77 -375 621 -209 378 -339 605 -403 700 -69 102 -161 185 -264
238 l-91 47 -834 -2 c-458 0 -887 -5 -953 -9z m1388 -285 c27 -4 44 -11 40
-17 -12 -20 -961 -714 -1563 -1143 -356 -253 -400 -284 -467 -318 l-53 -26
-705 2 -706 3 728 546 c770 578 1161 866 1215 898 52 31 121 43 298 51 212 9
1153 12 1213 4z m472 -120 c8 -4 48 -61 87 -128 107 -180 473 -842 548 -989
74 -144 76 -133 -30 -168 -139 -46 -235 -117 -280 -205 -35 -71 -39 -168 -48
-1073 l-7 -795 -260 -193 c-568 -422 -743 -540 -775 -523 -41 22 -114 149
-627 1090 -658 1206 -733 1349 -733 1399 0 55 153 177 990 792 829 610 1093
799 1110 799 5 0 16 -3 25 -6z m3895 -1458 c535 -292 810 -447 810 -456 0 -8
-32 -12 -680 -95 -511 -66 -1163 -145 -1564 -190 l-220 -25 -110 52 c-301 142
-1207 630 -1194 643 14 15 1510 224 2063 290 116 13 224 26 240 29 17 2 68 3
115 2 l85 -1 455 -249z m-7448 -707 c55 -28 118 -95 155 -165 45 -85 48 -113
21 -154 -48 -72 -121 -63 -216 25 -97 90 -142 198 -108 263 29 56 78 67 148
31z m8563 -53 c18 -13 20 -34 26 -242 4 -126 8 -754 8 -1395 l1 -1167 -39 -35
c-22 -20 -57 -41 -78 -46 -69 -19 -277 -49 -1248 -180 -528 -72 -1020 -139
-1094 -150 -164 -23 -185 -18 -203 42 -10 33 -13 325 -12 1362 0 726 4 1346 8
1377 12 92 49 115 251 152 218 41 1775 246 2195 289 89 9 167 6 185 -7z
m-4163 -154 c56 -53 81 -121 82 -217 0 -138 -58 -219 -132 -181 -76 39 -123
144 -123 272 0 93 11 119 64 153 39 25 61 20 109 -27z m933 -484 c68 -81 90
-229 47 -319 -34 -69 -97 -90 -143 -46 -91 84 -128 251 -78 354 40 83 108 88
174 11z m-495 -564 c37 -32 82 -119 100 -192 11 -47 10 -63 -5 -118 -27 -101
-70 -133 -133 -100 -95 50 -154 207 -122 325 14 54 67 111 103 111 14 0 40
-12 57 -26z m-2979 -194 c78 -51 159 -180 159 -256 0 -83 -74 -117 -167 -75
-90 41 -157 139 -173 251 -11 74 -6 88 34 106 42 19 89 11 147 -26z m2520
-403 c72 -48 122 -196 100 -299 -14 -61 -51 -124 -81 -133 -26 -8 -82 25 -115
69 -39 51 -56 113 -56 203 0 87 8 111 49 156 31 33 58 34 103 4z m919 -476
c79 -56 126 -228 91 -334 -14 -41 -63 -87 -93 -87 -115 0 -207 255 -137 381
38 69 80 81 139 40z"/>
<path d="M2338 7036 c-153 -63 -262 -159 -241 -212 11 -30 118 -14 207 29 89
45 210 153 204 183 -5 30 -98 30 -170 0z"/>
<path d="M4261 6915 c-88 -28 -140 -107 -141 -211 0 -80 23 -145 70 -193 95
-98 214 -113 304 -39 58 48 79 98 74 182 -9 181 -158 308 -307 261z"/>
<path d="M3052 6033 c-39 -8 -98 -76 -117 -133 -36 -110 3 -250 88 -311 113
-82 239 -61 314 52 73 111 12 303 -117 369 -40 20 -127 32 -168 23z"/>
<path d="M3877 4536 c-99 -36 -142 -101 -142 -216 1 -91 29 -153 98 -217 88
-82 207 -83 287 -3 46 46 64 109 58 194 -10 119 -80 208 -191 241 -60 18 -62
18 -110 1z"/>
<path d="M7462 6231 c-101 -17 -137 -72 -69 -108 40 -22 279 -31 345 -14 81
22 95 72 30 104 -43 21 -219 31 -306 18z"/>
<path d="M6717 6147 c-69 -16 -92 -35 -83 -70 11 -45 66 -62 196 -61 180 0
292 35 264 81 -28 47 -255 77 -377 50z"/>
<path d="M6025 6051 c-61 -16 -95 -40 -95 -67 0 -20 9 -29 48 -47 40 -19 64
-22 167 -22 127 1 188 13 227 45 32 26 16 50 -53 74 -59 20 -243 31 -294 17z"/>
<path d="M7877 6001 c-126 -18 -154 -71 -59 -108 71 -27 311 -26 367 2 54 27
56 62 5 87 -42 21 -223 31 -313 19z"/>
<path d="M7171 5909 c-82 -14 -106 -29 -106 -64 0 -24 7 -34 35 -48 30 -16 56
-18 195 -14 108 2 169 8 188 17 27 13 45 50 33 69 -21 33 -240 59 -345 40z"/>
<path d="M6480 5810 c-91 -9 -128 -25 -137 -58 -9 -37 23 -58 109 -73 92 -15
251 -1 301 28 68 40 35 89 -64 99 -111 10 -136 10 -209 4z"/>
<path d="M8317 5769 c-182 -19 -176 -110 8 -129 136 -14 236 -4 291 32 25 16
44 34 41 41 -6 19 -126 54 -202 59 -38 2 -100 1 -138 -3z"/>
<path d="M7571 5670 c-36 -5 -62 -16 -79 -33 -30 -30 -25 -50 20 -74 28 -15
56 -18 183 -17 169 1 228 14 233 53 5 32 -13 48 -66 60 -70 14 -230 21 -291
11z"/>
<path d="M6790 5568 c-29 -11 -35 -18 -35 -42 0 -20 9 -35 28 -50 26 -19 41
-21 185 -21 137 0 162 3 197 20 51 26 56 62 10 84 -41 20 -335 26 -385 9z"/>
<path d="M8885 4874 c-124 -64 -177 -217 -125 -357 34 -89 101 -137 195 -137
72 0 114 18 154 66 86 105 81 296 -10 378 -70 64 -152 83 -214 50z"/>
<path d="M8165 3951 c-108 -28 -184 -148 -172 -270 15 -141 99 -231 217 -231
98 0 173 63 211 178 29 88 19 154 -38 243 -41 64 -141 100 -218 80z"/>
<path d="M7416 2975 c-49 -17 -96 -63 -132 -128 -68 -122 -14 -300 110 -364
68 -35 156 -11 228 64 49 51 68 99 68 176 0 113 -38 186 -117 229 -63 33 -109
40 -157 23z"/>
</g>
</svg>
